<?xml version="1.0" encoding="UTF-8" standalone="no"?>
<!-- Uploaded to: SVG Repo, www.svgrepo.com, Generator: SVG Repo Mixer Tools -->

<svg
   fill="#000000"
   width="64"
   height="64"
   viewBox="0 0 1.92 1.92"
   role="img"
   version="1.1"
   id="svg1"
   sodipodi:docname="firefox.svg"
   inkscape:version="1.3 (0e150ed6c4, 2023-07-21)"
   xmlns:inkscape="http://www.inkscape.org/namespaces/inkscape"
   xmlns:sodipodi="http://sodipodi.sourceforge.net/DTD/sodipodi-0.dtd"
   xmlns="http://www.w3.org/2000/svg"
   xmlns:svg="http://www.w3.org/2000/svg">
  <defs
     id="defs1" />
  <sodipodi:namedview
     id="namedview1"
     pagecolor="#505050"
     bordercolor="#ffffff"
     borderopacity="1"
     inkscape:showpageshadow="0"
     inkscape:pageopacity="0"
     inkscape:pagecheckerboard="1"
     inkscape:deskcolor="#d1d1d1"
     inkscape:zoom="11.97"
     inkscape:cx="64.035088"
     inkscape:cy="32.121972"
     inkscape:window-width="2556"
     inkscape:window-height="1392"
     inkscape:window-x="1920"
     inkscape:window-y="284"
     inkscape:window-maximized="1"
     inkscape:current-layer="svg1" />
  <path
     d="m 0.72180789,0.60652505 c 6.001e-4,0 3.001e-4,0 0,0 z M 0.51180795,0.50152504 c 4.4999e-4,0 2.2499e-4,0 0,0 z M 1.7683581,0.66360006 c -0.037875,-0.091125 -0.11475,-0.18960002 -0.174975,-0.22072502 0.04905,0.096225 0.077475,0.19275002 0.088275,0.26475003 l 1.5e-4,0.0015 C 1.5832581,0.46327504 1.416008,0.36412503 1.2793581,0.14835001 c -0.00683,-0.011025 -0.0138,-0.0219 -0.020475,-0.03345 a 0.26587503,0.26587503 0 0 1 -0.00975,-0.018 0.15885002,0.15885002 0 0 1 -0.0129,-0.0345 0.00225,0.00225 0 0 0 -0.00202,-0.00225 0.00285,0.00285 0 0 0 -0.00158,0 l -4.5e-4,7.5e-5 a 0.002775,0.002775 0 0 0 -7.48e-4,3.75e-4 l 3.73e-4,-6e-4 C 1.037933,0.17362501 0.95753299,0.37260003 0.93690799,0.49920005 a 0.46477505,0.46477505 0 0 0 -0.172875,0.044025 0.022275,0.022275 0 0 0 -0.011025,0.02775 c 0.00427,0.0121499 0.018,0.018 0.0297,0.01275 a 0.42165004,0.42165004 0 0 1 0.1506,-0.039225 l 0.00503,-3.7501e-4 a 0.43852505,0.43852505 0 0 1 0.14677501,0.01665 l 0.00712,0.00225 a 0.43620004,0.43620004 0 0 1 0.0462,0.0171 c 0.006,0.0027 0.011999,0.005475 0.01785,0.0084 l 0.00802,0.004125 a 0.43762505,0.43762505 0 0 1 0.027605,0.015825 0.44647505,0.44647505 0 0 1 0.15255,0.15780002 c -0.0465,-0.032775 -0.1299751,-0.0651 -0.2102251,-0.051075 0.313725,0.15675001 0.2295,0.69690004 -0.20527501,0.67650004 a 0.38730004,0.38730004 0 0 1 -0.113475,-0.0219 0.33150003,0.33150003 0 0 1 -0.04035,-0.0174 c -0.10650002,-0.055125 -0.19447504,-0.159075 -0.20550004,-0.28545 0,0 0.040275,-0.15000002 0.28837504,-0.15000002 0.026775,0 0.1035,-0.07485 0.10485,-0.096525 -3.75e-4,-0.007125 -0.152175,-0.0675 -0.211275,-0.12577501 -0.03165,-0.0312 -0.04665,-0.0462 -0.0600003,-0.057525 a 0.26025003,0.26025003 0 0 0 -0.0225745,-0.017025 0.40410005,0.40410005 0 0 1 -0.002404,-0.21315002 c -0.0896208,0.0408 -0.15929576,0.10522497 -0.20999577,0.16222498 h -4.5e-4 c -0.0345,-0.0438 -0.0321,-0.18825002 -0.03015,-0.21847503 -4.5e-4,-0.001875 -0.025725,0.0132 -0.029175,0.01545 a 0.63225007,0.63225007 0 0 0 -0.0852,0.07305 c -0.029775,0.030225 -0.057,0.062925 -0.0813751,0.097725 A 0.73620008,0.73620008 0 0 0 0.1131079,0.80092508 c -2.25e-4,9.7539e-4 -0.00825,0.036525 -0.01425,0.080475 -9.7538e-4,0.00675 -0.00195,0.013575 -0.002775,0.0204 a 0.58500007,0.58500007 0 0 0 -0.005175,0.050025 l -1.5e-4,0.00255 -0.001725,0.0290249 -7.5e-5,0.0045 C 0.088958,1.469625 0.47948304,1.86 0.96120809,1.86 1.3926081,1.86 1.7507332,1.5468 1.8209332,1.1354249 c 0.0015,-0.011175 0.00262,-0.02235 0.0039,-0.0336 0.0174,-0.14954989 -0.00188,-0.30674991 -0.056475,-0.43829993 z"
     id="path1"
     style="stroke-width:0.075" />
</svg>
