<?xml version="1.0" encoding="UTF-8" standalone="no"?>
<!-- Uploaded to: SVG Repo, www.svgrepo.com, Generator: SVG Repo Mixer Tools -->

<svg
   width="64"
   height="64"
   viewBox="0 0 1.92 1.92"
   fill="none"
   version="1.1"
   id="svg1"
   sodipodi:docname="music-note.svg"
   inkscape:version="1.3 (0e150ed6c4, 2023-07-21)"
   xmlns:inkscape="http://www.inkscape.org/namespaces/inkscape"
   xmlns:sodipodi="http://sodipodi.sourceforge.net/DTD/sodipodi-0.dtd"
   xmlns="http://www.w3.org/2000/svg"
   xmlns:svg="http://www.w3.org/2000/svg">
  <defs
     id="defs1" />
  <sodipodi:namedview
     id="namedview1"
     pagecolor="#505050"
     bordercolor="#ffffff"
     borderopacity="1"
     inkscape:showpageshadow="0"
     inkscape:pageopacity="0"
     inkscape:pagecheckerboard="1"
     inkscape:deskcolor="#d1d1d1"
     inkscape:zoom="8.4640682"
     inkscape:cx="17.308462"
     inkscape:cy="44.364009"
     inkscape:window-width="2556"
     inkscape:window-height="1392"
     inkscape:window-x="1920"
     inkscape:window-y="284"
     inkscape:window-maximized="1"
     inkscape:current-layer="svg1" />
  <path
     d="m 1.1728281,0.03171176 c -0.1163253,-0.013568 -0.22670266,0.054647 -0.26658536,0.1647546 -0.00899,0.024814 -0.012144,0.051643 -0.013622,0.079765 -0.00111,0.021215 -0.00139,0.046504 -0.00144,0.076288 l -2.76e-5,0.041764 c 0,4.415e-4 0,8.821e-4 0,0.00132 V 1.1360284 C 0.81315864,1.0628262 0.70823454,1.017996 0.59283534,1.017996 c -0.240797,0 -0.436002,0.1952004 -0.436002,0.436002 0,0.2408016 0.195205,0.436002 0.436002,0.436002 0.2408016,0 0.43600196,-0.1952004 0.43600196,-0.436002 V 0.64721896 c 0.00962,0.00513 0.020038,0.010333 0.031456,0.016034 l 0.2485211,0.1242587 c 0.038396,0.019193 0.069641,0.034816 0.095241,0.045978 0.025811,0.011254 0.051219,0.020433 0.077434,0.023489 0.1163161,0.013567 0.2266935,-0.054652 0.2665762,-0.1647546 0.009,-0.024815 0.012144,-0.051644 0.013631,-0.079765 0.00146,-0.027889 0.00146,-0.062818 0.00146,-0.1057429 l 9.2e-6,-0.0076 c 9.2e-6,-0.03192 1.84e-5,-0.05689 -0.00451,-0.080554 -0.011657,-0.060913 -0.045335,-0.115401 -0.094599,-0.1530697 -0.019147,-0.014634 -0.04148,-0.02579 -0.070036,-0.040053 L 1.3455032,0.10117926 c -0.038396,-0.019198 -0.069641,-0.03482 -0.095241,-0.04598 -0.025811,-0.011254 -0.051219,-0.02043 -0.077434,-0.0234875 z"
     fill="#1C274C"
     id="path1"
     style="fill:#f9f9f9;stroke-width:0.0917899" />
</svg>
