<?xml version="1.0" encoding="UTF-8" standalone="no"?>
<!-- Uploaded to: SVG Repo, www.svgrepo.com, Generator: SVG Repo Mixer Tools -->

<svg
   width="36"
   height="36"
   viewBox="0 0 4.5 4.5"
   version="1.1"
   xml:space="preserve"
   id="svg4"
   sodipodi:docname="youtube-music.svg"
   inkscape:version="1.3 (0e150ed6c4, 2023-07-21)"
   xmlns:inkscape="http://www.inkscape.org/namespaces/inkscape"
   xmlns:sodipodi="http://sodipodi.sourceforge.net/DTD/sodipodi-0.dtd"
   xmlns="http://www.w3.org/2000/svg"
   xmlns:svg="http://www.w3.org/2000/svg"><defs
   id="defs4" /><sodipodi:namedview
   id="namedview4"
   pagecolor="#505050"
   bordercolor="#ffffff"
   borderopacity="1"
   inkscape:showpageshadow="0"
   inkscape:pageopacity="0"
   inkscape:pagecheckerboard="1"
   inkscape:deskcolor="#d1d1d1"
   inkscape:zoom="33.856273"
   inkscape:cx="23.201018"
   inkscape:cy="19.804307"
   inkscape:window-width="2556"
   inkscape:window-height="1392"
   inkscape:window-x="1920"
   inkscape:window-y="284"
   inkscape:window-maximized="1"
   inkscape:current-layer="g4"
   inkscape:clip-to-page="false"
   shape-rendering="auto" />&#10;&#10;<style
   type="text/css"
   id="style1">&#10;	.st0{fill:#FFFFFF;}&#10;	.st1{fill:#F5BB41;}&#10;	.st2{fill:#2167D1;}&#10;	.st3{fill:#3D84F3;}&#10;	.st4{fill:#4CA853;}&#10;	.st5{fill:#398039;}&#10;	.st6{fill:#D74F3F;}&#10;	.st7{fill:#D43C89;}&#10;	.st8{fill:#B2005F;}&#10;	.st9{fill:none;stroke:#000000;stroke-width:3;stroke-linecap:round;stroke-linejoin:round;stroke-miterlimit:10;}&#10;	&#10;		.st10{fill-rule:evenodd;clip-rule:evenodd;fill:none;stroke:#000000;stroke-width:3;stroke-linecap:round;stroke-linejoin:round;stroke-miterlimit:10;}&#10;	&#10;		.st11{fill-rule:evenodd;clip-rule:evenodd;fill:none;stroke:#040404;stroke-width:3;stroke-linecap:round;stroke-linejoin:round;stroke-miterlimit:10;}&#10;	.st12{fill-rule:evenodd;clip-rule:evenodd;}&#10;	.st13{fill-rule:evenodd;clip-rule:evenodd;fill:#040404;}&#10;	.st14{fill:url(#SVGID_1_);}&#10;	.st15{fill:url(#SVGID_2_);}&#10;	.st16{fill:url(#SVGID_3_);}&#10;	.st17{fill:url(#SVGID_4_);}&#10;	.st18{fill:url(#SVGID_5_);}&#10;	.st19{fill:url(#SVGID_6_);}&#10;	.st20{fill:url(#SVGID_7_);}&#10;	.st21{fill:url(#SVGID_8_);}&#10;	.st22{fill:url(#SVGID_9_);}&#10;	.st23{fill:url(#SVGID_10_);}&#10;	.st24{fill:url(#SVGID_11_);}&#10;	.st25{fill:url(#SVGID_12_);}&#10;	.st26{fill:url(#SVGID_13_);}&#10;	.st27{fill:url(#SVGID_14_);}&#10;	.st28{fill:url(#SVGID_15_);}&#10;	.st29{fill:url(#SVGID_16_);}&#10;	.st30{fill:url(#SVGID_17_);}&#10;	.st31{fill:url(#SVGID_18_);}&#10;	.st32{fill:url(#SVGID_19_);}&#10;	.st33{fill:url(#SVGID_20_);}&#10;	.st34{fill:url(#SVGID_21_);}&#10;	.st35{fill:url(#SVGID_22_);}&#10;	.st36{fill:url(#SVGID_23_);}&#10;	.st37{fill:url(#SVGID_24_);}&#10;	.st38{fill:url(#SVGID_25_);}&#10;	.st39{fill:url(#SVGID_26_);}&#10;	.st40{fill:url(#SVGID_27_);}&#10;	.st41{fill:url(#SVGID_28_);}&#10;	.st42{fill:url(#SVGID_29_);}&#10;	.st43{fill:url(#SVGID_30_);}&#10;	.st44{fill:url(#SVGID_31_);}&#10;	.st45{fill:url(#SVGID_32_);}&#10;	.st46{fill:url(#SVGID_33_);}&#10;	.st47{fill:url(#SVGID_34_);}&#10;	.st48{fill:url(#SVGID_35_);}&#10;	.st49{fill:url(#SVGID_36_);}&#10;	.st50{fill:url(#SVGID_37_);}&#10;	.st51{fill:url(#SVGID_38_);}&#10;	.st52{fill:url(#SVGID_39_);}&#10;	.st53{fill:url(#SVGID_40_);}&#10;	.st54{fill:url(#SVGID_41_);}&#10;	.st55{fill:url(#SVGID_42_);}&#10;	.st56{fill:url(#SVGID_43_);}&#10;	.st57{fill:url(#SVGID_44_);}&#10;	.st58{fill:url(#SVGID_45_);}&#10;	.st59{fill:#040404;}&#10;	.st60{fill:url(#SVGID_46_);}&#10;	.st61{fill:url(#SVGID_47_);}&#10;	.st62{fill:url(#SVGID_48_);}&#10;	.st63{fill:url(#SVGID_49_);}&#10;	.st64{fill:url(#SVGID_50_);}&#10;	.st65{fill:url(#SVGID_51_);}&#10;	.st66{fill:url(#SVGID_52_);}&#10;	.st67{fill:url(#SVGID_53_);}&#10;	.st68{fill:url(#SVGID_54_);}&#10;	.st69{fill:url(#SVGID_55_);}&#10;	.st70{fill:url(#SVGID_56_);}&#10;	.st71{fill:url(#SVGID_57_);}&#10;	.st72{fill:url(#SVGID_58_);}&#10;	.st73{fill:url(#SVGID_59_);}&#10;	.st74{fill:url(#SVGID_60_);}&#10;	.st75{fill:url(#SVGID_61_);}&#10;	.st76{fill:url(#SVGID_62_);}&#10;	.st77{fill:none;stroke:#000000;stroke-width:3;stroke-miterlimit:10;}&#10;	.st78{fill:none;stroke:#FFFFFF;stroke-miterlimit:10;}&#10;	.st79{fill:#4BC9FF;}&#10;	.st80{fill:#5500DD;}&#10;	.st81{fill:#FF3A00;}&#10;	.st82{fill:#E6162D;}&#10;	.st83{fill:#F1F1F1;}&#10;	.st84{fill:#FF9933;}&#10;	.st85{fill:#B92B27;}&#10;	.st86{fill:#00ACED;}&#10;	.st87{fill:#BD2125;}&#10;	.st88{fill:#1877F2;}&#10;	.st89{fill:#6665D2;}&#10;	.st90{fill:#CE3056;}&#10;	.st91{fill:#5BB381;}&#10;	.st92{fill:#61C3EC;}&#10;	.st93{fill:#E4B34B;}&#10;	.st94{fill:#181EF2;}&#10;	.st95{fill:#FF0000;}&#10;	.st96{fill:#FE466C;}&#10;	.st97{fill:#FA4778;}&#10;	.st98{fill:#FF7700;}&#10;	.st99{fill-rule:evenodd;clip-rule:evenodd;fill:#1F6BF6;}&#10;	.st100{fill:#520094;}&#10;	.st101{fill:#4477E8;}&#10;	.st102{fill:#3D1D1C;}&#10;	.st103{fill:#FFE812;}&#10;	.st104{fill:#344356;}&#10;	.st105{fill:#00CC76;}&#10;	.st106{fill-rule:evenodd;clip-rule:evenodd;fill:#345E90;}&#10;	.st107{fill:#1F65D8;}&#10;	.st108{fill:#EB3587;}&#10;	.st109{fill-rule:evenodd;clip-rule:evenodd;fill:#603A88;}&#10;	.st110{fill:#E3CE99;}&#10;	.st111{fill:#783AF9;}&#10;	.st112{fill:#FF515E;}&#10;	.st113{fill:#FF4906;}&#10;	.st114{fill:#503227;}&#10;	.st115{fill:#4C7BD9;}&#10;	.st116{fill:#69C9D0;}&#10;	.st117{fill:#1B92D1;}&#10;	.st118{fill:#EB4F4A;}&#10;	.st119{fill:#513728;}&#10;	.st120{fill:#FF6600;}&#10;	.st121{fill-rule:evenodd;clip-rule:evenodd;fill:#B61438;}&#10;	.st122{fill:#FFFC00;}&#10;	.st123{fill:#141414;}&#10;	.st124{fill:#94D137;}&#10;	.st125{fill-rule:evenodd;clip-rule:evenodd;fill:#F1F1F1;}&#10;	.st126{fill-rule:evenodd;clip-rule:evenodd;fill:#66E066;}&#10;	.st127{fill:#2D8CFF;}&#10;	.st128{fill:#F1A300;}&#10;	.st129{fill:#4BA2F2;}&#10;	.st130{fill:#1A5099;}&#10;	.st131{fill:#EE6060;}&#10;	.st132{fill-rule:evenodd;clip-rule:evenodd;fill:#F48120;}&#10;	.st133{fill:#222222;}&#10;	.st134{fill:url(#SVGID_63_);}&#10;	.st135{fill:#0077B5;}&#10;	.st136{fill:#FFCC00;}&#10;	.st137{fill:#EB3352;}&#10;	.st138{fill:#F9D265;}&#10;	.st139{fill:#F5B955;}&#10;	.st140{fill:#DD2A7B;}&#10;	.st141{fill:#66E066;}&#10;	.st142{fill:#EB4E00;}&#10;	.st143{fill:#FFC794;}&#10;	.st144{fill:#B5332A;}&#10;	.st145{fill:#4E85EB;}&#10;	.st146{fill:#58A45C;}&#10;	.st147{fill:#F2BC42;}&#10;	.st148{fill:#D85040;}&#10;	.st149{fill:#464EB8;}&#10;	.st150{fill:#7B83EB;}&#10;</style>&#10;&#10;<g
   id="Layer_1" />&#10;&#10;<g
   id="Layer_2">&#10;&#10;<g
   id="g4">&#10;&#10;<g
   id="g3"
   transform="matrix(0.04210526,0,0,0.04210526,0.144737,0.14472676)">&#10;&#10;<path
   d="m 50.001953,26.103027 c -0.498312,-3.1e-5 -0.9886,0.01218 -1.470947,0.03613 -0.482347,0.02395 -0.956659,0.05957 -1.423096,0.10669 -0.466436,0.04712 -0.924908,0.105581 -1.375488,0.175048 -0.45058,0.06947 -0.893347,0.149966 -1.328125,0.240967 -0.434778,0.091 -0.861731,0.19248 -1.280762,0.304199 -0.419031,0.111719 -0.83006,0.233614 -1.233398,0.365235 -0.403338,0.13162 -0.798825,0.273122 -1.186524,0.423828 -0.387699,0.150705 -0.767777,0.310762 -1.139892,0.479736 -0.372115,0.168975 -0.736433,0.346776 -1.093018,0.533203 -0.356585,0.186428 -0.705277,0.381409 -1.046387,0.584473 -0.682218,0.406127 -1.333702,0.844724 -1.954345,1.3125 -0.620643,0.467776 -1.210518,0.964654 -1.77002,1.487549 -0.559502,0.522895 -1.088606,1.071827 -1.587402,1.64331 -0.498797,0.571484 -0.967236,1.16551 -1.405762,1.779053 -0.438526,0.613543 -0.84714,1.24668 -1.22583,1.895752 -0.37869,0.649073 -0.727585,1.314115 -1.046875,1.992188 -0.319289,0.678072 -0.608817,1.369037 -0.869141,2.06958 -0.260324,0.700542 -0.491321,1.410715 -0.693115,2.127197 -0.201793,0.716482 -0.374368,1.43939 -0.518066,2.165283 -0.143698,0.725893 -0.258445,1.45482 -0.344483,2.183594 -0.08604,0.728773 -0.14355,1.457249 -0.172363,2.182373 6.3e-5,0.828874 0.04255,1.648409 0.125244,2.456299 0.0827,0.80789 0.205696,1.604167 0.366944,2.386963 0.161247,0.782796 0.360713,1.552071 0.596435,2.305664 0.235722,0.753593 0.507604,1.491633 0.813721,2.211914 0.306117,0.72028 0.64661,1.422854 1.019043,2.105713 0.372433,0.682858 0.777,1.345977 1.21167,1.987304 0.434669,0.641328 0.899262,1.260759 1.39209,1.856446 0.492827,0.595687 1.013885,1.167686 1.560791,1.713623 0.546905,0.545937 1.119647,1.065783 1.716552,1.557861 0.596905,0.492078 1.21777,0.956272 1.860596,1.390381 0.642826,0.434109 1.307765,0.838174 1.992432,1.210205 0.684666,0.372031 1.389143,0.711979 2.111572,1.017822 0.722429,0.305844 1.462638,0.577686 2.21875,0.813233 0.756112,0.235546 1.528249,0.434807 2.313965,0.595947 0.785716,0.16114 1.585243,0.284074 2.396484,0.366699 0.811241,0.08263 1.63411,0.125 2.466797,0.125 0.832687,0 1.655556,-0.04236 2.466797,-0.125 0.811241,-0.08264 1.610769,-0.205499 2.396484,-0.366699 0.785715,-0.1612 1.557855,-0.360755 2.313965,-0.596436 0.75611,-0.23568 1.496325,-0.507639 2.21875,-0.81372 0.722425,-0.306082 1.426912,-0.646152 2.111572,-1.018555 0.684661,-0.372403 1.349371,-0.777025 1.992188,-1.21167 0.642817,-0.434645 1.263702,-0.899527 1.860596,-1.392334 0.596893,-0.492807 1.169906,-1.013657 1.716796,-1.560547 0.546891,-0.54689 1.06774,-1.119659 1.560547,-1.716552 0.492808,-0.596894 0.957445,-1.217779 1.39209,-1.860596 0.434645,-0.642817 0.839267,-1.307527 1.21167,-1.992188 0.372403,-0.68466 0.712717,-1.389391 1.018799,-2.111816 0.306082,-0.722425 0.57804,-1.46264 0.813721,-2.21875 0.23568,-0.75611 0.434991,-1.528006 0.596191,-2.313721 0.1612,-0.785715 0.284304,-1.585244 0.366943,-2.396484 0.08264,-0.811241 0.125,-1.634355 0.125,-2.467041 -0.02856,-0.721187 -0.08582,-1.445837 -0.17163,-2.171143 -0.08581,-0.725306 -0.200257,-1.451205 -0.34375,-2.174072 C 73.503235,45.061801 73.33076,44.3418 73.12915,43.62793 72.927541,42.914059 72.696683,42.206372 72.436523,41.508057 72.176364,40.809741 71.887016,40.120783 71.567871,39.44458 71.248727,38.768377 70.899803,38.104807 70.52124,37.457275 70.142677,36.809744 69.734314,36.17822 69.295898,35.565918 c -0.438415,-0.612302 -0.906815,-1.205364 -1.405517,-1.775879 -0.498703,-0.570515 -1.027735,-1.118455 -1.587158,-1.640625 -0.559424,-0.52217 -1.149197,-1.018574 -1.769776,-1.48584 -0.620578,-0.467266 -1.271934,-0.905475 -1.954101,-1.311279 -0.341084,-0.202902 -0.689825,-0.397677 -1.046387,-0.583984 -0.356562,-0.186308 -0.720922,-0.364067 -1.093018,-0.532959 -0.372095,-0.168893 -0.751966,-0.328835 -1.139648,-0.479493 -0.387683,-0.150657 -0.7832,-0.29198 -1.186523,-0.423584 -0.403324,-0.131603 -0.814379,-0.253505 -1.233399,-0.365234 -0.41902,-0.111729 -0.845992,-0.213408 -1.280762,-0.304443 -0.434769,-0.09104 -0.877307,-0.171445 -1.32788,-0.240967 -0.450574,-0.06952 -0.909056,-0.128105 -1.375489,-0.175293 -0.466432,-0.04719 -0.940995,-0.0829 -1.42334,-0.106934 -0.482345,-0.02403 -0.972635,-0.03631 -1.470947,-0.03638 z M 41.054932,37.271973 62.856934,49.571045 41.054932,62.988037 c 10e-4,-2.592997 -10e-4,-7.884963 0,-10.459961 z"
   style="fill:#ff0000"
   id="path6" /><path
   d="m 50,2.5 c -0.819812,0 -1.634725,0.020864 -2.444336,0.062012 -0.809611,0.041148 -1.613938,0.10254 -2.412353,0.1838379 -0.798416,0.081298 -1.590972,0.1825279 -2.377198,0.3029785 -0.786226,0.1204506 -1.56607,0.2600954 -2.339111,0.4187012 -0.773041,0.1586058 -1.539234,0.3362189 -2.298096,0.5319824 -0.758861,0.1957635 -1.510463,0.4096779 -2.25415,0.6416016 -0.743688,0.2319234 -1.479513,0.4816925 -2.207031,0.748779 -0.727519,0.2670864 -1.446628,0.5515315 -2.156983,0.8527832 -0.710355,0.3012516 -1.412052,0.619438 -2.104248,0.9538574 -0.692196,0.3344194 -1.375053,0.6851682 -2.048096,1.0517578 -0.673043,0.3665896 -1.336118,0.7489662 -1.989013,1.1467285 -0.652895,0.3977624 -1.295494,0.8108325 -1.927246,1.2387695 -0.631753,0.427938 -1.25269,0.870766 -1.862305,1.327881 -0.609615,0.457115 -1.207951,0.928523 -1.794434,1.413818 -0.586482,0.485296 -1.161277,0.984348 -1.723632,1.496826 -0.562356,0.512479 -1.112181,1.038485 -1.649414,1.577149 -0.537234,0.538663 -1.061881,1.090201 -1.572999,1.654053 -0.511117,0.563851 -1.008913,1.139985 -1.492919,1.728027 -0.484007,0.588041 -0.954012,1.187838 -1.409913,1.799072 -0.4559,0.611235 -0.897663,1.233758 -1.324462,1.867188 -0.4268,0.633429 -0.8386481,1.277745 -1.235352,1.932373 -0.3967039,0.654627 -0.7781852,1.319557 -1.1437988,1.994385 -0.3656137,0.674827 -0.7155437,1.35968 -1.0490723,2.05371 -0.3335287,0.694031 -0.650723,1.397384 -0.9511719,2.10962 -0.3004489,0.712235 -0.5839674,1.433398 -0.8503418,2.162841 -0.2663744,0.729444 -0.515521,1.467237 -0.7468262,2.212891 -0.2313051,0.745654 -0.4448955,1.499143 -0.6401367,2.26001 -0.1952412,0.760866 -0.372091,1.529117 -0.5302734,2.304199 -0.1581825,0.775082 -0.2975956,1.556915 -0.4177246,2.345215 -0.120129,0.788299 -0.2211654,1.583025 -0.3022461,2.383545 -0.081081,0.80052 -0.1423119,1.606958 -0.1833496,2.418701 C 2.5207298,48.487036 2.5,49.304009 2.5,50.125977 c 0.039094,0.987108 0.099512,1.958786 0.1806641,2.915039 0.081152,0.956252 0.1830563,1.897112 0.3049316,2.822509 0.1218753,0.925398 0.2637857,1.835438 0.4250488,2.729981 0.1612632,0.894542 0.341944,1.773519 0.5412598,2.637207 0.1993158,0.863688 0.4172872,1.712088 0.6533203,2.544922 0.2360332,0.832834 0.4900593,1.650168 0.7614746,2.452148 0.2714153,0.80198 0.5602605,1.588493 0.8657227,2.359619 0.3054621,0.771127 0.6276466,1.526816 0.9658203,2.26709 0.3381737,0.740274 0.6922175,1.465139 1.0617676,2.174561 0.36955,0.709421 0.7544615,1.403462 1.1540527,2.082031 0.3995912,0.678569 0.8138905,1.341784 1.2421875,1.989502 0.428297,0.647718 0.870504,1.279862 1.326172,1.896728 0.455667,0.616867 0.924791,1.218428 1.406494,1.804444 0.481703,0.586015 0.976019,1.156505 1.482422,1.71167 0.506403,0.555165 1.02492,1.09507 1.554687,1.619384 0.529768,0.524315 1.070762,1.033147 1.622559,1.526612 0.551797,0.493465 1.114276,0.971466 1.686768,1.434082 0.572491,0.462616 1.155219,0.909785 1.74707,1.341553 0.59185,0.431767 1.19286,0.848104 1.802734,1.249023 0.609875,0.400919 1.228418,0.786423 1.854981,1.156494 0.626563,0.370071 1.26116,0.724742 1.903076,1.063965 0.641916,0.339223 1.291331,0.66306 1.947266,0.971436 0.655934,0.308375 1.318443,0.601377 1.98706,0.878906 0.668617,0.277529 1.343229,0.53945 2.023193,0.786133 0.679965,0.246682 1.3652,0.478011 2.055176,0.693847 0.689977,0.215837 1.384843,0.416328 2.083496,0.601319 0.698654,0.184991 1.401183,0.354643 2.107178,0.508789 0.705995,0.154145 1.41544,0.292714 2.127441,0.416015 0.712002,0.123301 1.426638,0.231274 2.143311,0.323731 0.716673,0.09246 1.435264,0.169344 2.155273,0.230957 0.720009,0.06161 1.441321,0.107903 2.16333,0.138672 0.72201,0.03077 1.444806,0.04622 2.167481,0.04614 0.722675,-7.4e-5 1.445231,-0.01571 2.167236,-0.04663 0.722006,-0.03092 1.44333,-0.07716 2.16333,-0.138916 0.720001,-0.06176 1.438858,-0.139088 2.155518,-0.231689 0.71666,-0.0926 1.431326,-0.200532 2.14331,-0.323975 0.711985,-0.123443 1.421224,-0.262219 2.127198,-0.416504 0.705973,-0.154284 1.40855,-0.324152 2.107177,-0.509277 0.698628,-0.185125 1.393307,-0.385597 2.083252,-0.601562 0.689946,-0.215966 1.375247,-0.447287 2.055176,-0.694092 0.679929,-0.246805 1.354372,-0.509221 2.022949,-0.786865 0.668578,-0.277645 1.331171,-0.570667 1.987061,-0.879151 0.65589,-0.308484 1.305154,-0.632357 1.947021,-0.97168 0.641868,-0.339322 1.276322,-0.694048 1.902833,-1.064209 0.62651,-0.37016 1.245163,-0.755739 1.85498,-1.156738 0.609817,-0.400999 1.210945,-0.817431 1.802734,-1.249267 0.591789,-0.431837 1.174157,-0.879124 1.746582,-1.341797 0.572426,-0.462674 1.134797,-0.940816 1.686524,-1.434326 0.551727,-0.493511 1.092865,-1.002265 1.622558,-1.526612 0.529693,-0.524346 1.04812,-1.064202 1.554444,-1.619385 0.506324,-0.555182 1.000558,-1.125651 1.482178,-1.711669 0.481619,-0.586018 0.950426,-1.187591 1.406005,-1.804444 0.45558,-0.616853 0.897968,-1.249041 1.326172,-1.896728 0.428205,-0.647688 0.842205,-1.310736 1.241699,-1.989258 0.399495,-0.678522 0.78436,-1.372675 1.153809,-2.082031 0.369449,-0.709356 0.723699,-1.434127 1.061768,-2.174317 0.338068,-0.740189 0.659979,-1.495823 0.965332,-2.266845 0.305352,-0.771023 0.593933,-1.557276 0.865234,-2.359131 0.271301,-0.801856 0.525316,-1.619217 0.761231,-2.451905 0.235914,-0.832687 0.453883,-1.68067 0.653076,-2.544189 0.199192,-0.863519 0.379635,-1.742612 0.540771,-2.636963 0.161136,-0.894351 0.302817,-1.804066 0.424561,-2.729248 0.121743,-0.925182 0.223671,-1.865765 0.304687,-2.821777 C 97.40084,52.083294 97.461047,51.111843 97.5,50.125 97.5,49.303063 97.47927,48.48603 97.43823,47.674316 97.39719,46.862603 97.335721,46.056108 97.254637,45.255615 97.173547,44.455123 97.072769,43.660588 96.952635,42.872314 96.832503,42.084041 96.693101,41.302157 96.534912,40.5271 96.376723,39.752042 96.199887,38.983745 96.004639,38.2229 95.80939,37.462056 95.595816,36.708524 95.364502,35.962891 95.133188,35.217258 94.884059,34.479668 94.617676,33.750244 94.351292,33.02082 94.067549,32.29962 93.76709,31.587402 93.466631,30.875184 93.149457,30.171797 92.815918,29.477783 92.482379,28.783769 92.13247,28.099129 91.766846,27.424316 91.401222,26.749504 91.019761,26.084545 90.623047,25.429932 90.226333,24.775318 89.814505,24.130976 89.387695,23.497559 88.960886,22.864141 88.519142,22.241594 88.063232,21.630371 87.607322,21.019148 87.137092,20.41933 86.653076,19.831299 86.169061,19.243267 85.671282,18.667114 85.160156,18.103271 84.64903,17.539429 84.124644,16.987874 83.587402,16.449219 83.050161,15.910563 82.500106,15.384786 81.937744,14.872314 81.375382,14.359843 80.800599,13.860778 80.214111,13.375488 79.627623,12.890199 79.029297,12.41878 78.419678,11.96167 77.810059,11.50456 77.189128,11.061722 76.557373,10.633789 75.925618,10.205856 75.283023,9.7927782 74.630127,9.3950195 73.977231,8.9972609 73.314155,8.6148776 72.641113,8.248291 71.968072,7.8817045 71.28521,7.5309501 70.593018,7.1965332 69.900825,6.8621163 69.199363,6.5439255 68.489014,6.2426758 67.778665,5.9414261 67.059297,5.6569775 66.331787,5.3898926 65.604277,5.1228076 64.868432,4.8730359 64.124756,4.6411133 63.381079,4.4091907 62.629697,4.1952745 61.87085,3.9995117 61.112002,3.803749 60.345778,3.6261346 59.572754,3.4675293 58.79973,3.308924 58.019848,3.1692784 57.233643,3.0488281 56.447437,2.9283778 55.654837,2.8271474 54.856445,2.7458496 54.058053,2.6645518 53.25392,2.6031594 52.444336,2.5620117 51.634752,2.5208641 50.81978,2.5 50,2.5 Z m -9.77e-4,20.495117 h 0.002 c 0.788499,6.3e-5 1.582084,0.03321 2.377197,0.09985 0.795113,0.06665 1.591817,0.166741 2.386474,0.300781 0.794658,0.13404 1.58738,0.301908 2.374512,0.50415 0.787133,0.202243 1.568526,0.438708 2.341065,0.709961 0.772538,0.271254 1.536234,0.577383 2.287109,0.918457 0.750875,0.341074 1.48904,0.717203 2.211182,1.128907 0.722141,0.411703 1.428162,0.858898 2.114502,1.342041 0.686339,0.483142 1.353114,1.002227 1.996582,1.557617 0.643468,0.55539 1.26365,1.147188 1.857177,1.775635 0.296764,0.314223 0.58692,0.637575 0.869873,0.970214 0.282953,0.33264 0.558646,0.674479 0.826905,1.025635 0.268258,0.351157 0.529057,0.711524 0.781738,1.081299 0.25268,0.369775 0.49718,0.748957 0.733398,1.137451 0.236219,0.388494 0.463988,0.786289 0.682862,1.193604 0.218873,0.407314 0.428994,0.824252 0.629638,1.250488 0.200645,0.426236 0.391955,0.86187 0.573487,1.307129 0.181531,0.445258 0.353357,0.900119 0.514892,1.364502 0.161536,0.464382 0.312714,0.938267 0.453369,1.421875 0.140656,0.483607 0.270757,0.976803 0.389649,1.479736 0.118891,0.502934 0.22651,1.015725 0.322754,1.538086 0.09624,0.522361 0.180949,1.054302 0.253662,1.596191 0.07271,0.54189 0.133586,1.093511 0.181885,1.65503 0.0483,0.561519 0.08418,1.133106 0.107177,1.714355 6.3e-5,0.471844 -0.01185,0.940781 -0.0354,1.406739 -0.02355,0.465957 -0.05889,0.928926 -0.105469,1.388427 -0.04658,0.459501 -0.104542,0.915448 -0.173584,1.36792 -0.06904,0.452472 -0.149065,0.901319 -0.23999,1.346192 -0.09092,0.444872 -0.1927,0.885809 -0.304932,1.322509 -0.112232,0.436701 -0.234956,0.869163 -0.36792,1.297119 -0.265926,0.855914 -0.572814,1.69372 -0.918212,2.511231 -0.345398,0.817511 -0.729396,1.614869 -1.149659,2.389404 -0.420262,0.774535 -0.876666,1.526432 -1.367187,2.253418 -0.490521,0.726987 -1.015116,1.428895 -1.571289,2.10376 -0.556173,0.674865 -1.144013,1.322503 -1.761231,1.940674 -0.617218,0.618171 -1.263843,1.207011 -1.9375,1.763916 -0.673657,0.556904 -1.374364,1.081933 -2.099853,1.572998 -0.72549,0.491065 -1.475576,0.948244 -2.248291,1.368896 -0.772716,0.420653 -1.567966,0.804723 -2.383301,1.150391 -0.815335,0.345668 -1.650802,0.652835 -2.50415,0.918945 -0.426674,0.133055 -0.8579,0.255856 -1.293213,0.368164 -0.435314,0.112308 -0.874738,0.214186 -1.318115,0.305176 -0.443378,0.09099 -0.890688,0.171135 -1.341553,0.240235 -0.450866,0.0691 -0.90526,0.12719 -1.363037,0.173828 -0.457778,0.04664 -0.918943,0.08186 -1.383057,0.105468 -0.464114,0.02361 -0.931248,0.0354 -1.401123,0.0354 -0.469875,0 -0.937009,-0.0118 -1.401123,-0.0354 -0.464114,-0.0236 -0.925279,-0.05883 -1.383057,-0.105468 -0.457778,-0.04663 -0.912171,-0.104741 -1.363037,-0.173828 -0.450866,-0.06909 -0.898174,-0.149269 -1.341553,-0.240235 -0.443378,-0.09097 -0.8828,-0.192662 -1.318115,-0.304932 -0.435315,-0.112269 -0.866536,-0.235167 -1.293213,-0.368164 -0.853352,-0.265992 -1.688807,-0.572764 -2.50415,-0.918212 -0.815343,-0.345449 -1.610573,-0.729602 -2.383301,-1.149903 -0.772728,-0.420301 -1.523028,-0.876882 -2.248535,-1.367431 -0.725507,-0.49055 -1.426173,-1.015096 -2.099854,-1.57129 -0.67368,-0.556193 -1.32025,-1.143996 -1.9375,-1.76123 -0.617249,-0.617234 -1.205262,-1.26383 -1.761474,-1.9375 -0.556212,-0.67367 -1.080719,-1.374351 -1.571289,-2.099853 -0.49057,-0.725503 -0.94711,-1.475805 -1.367432,-2.248536 -0.420322,-0.77273 -0.804434,-1.567946 -1.149902,-2.3833 -0.345469,-0.815355 -0.652204,-1.650776 -0.918213,-2.504151 -0.133005,-0.426687 -0.255888,-0.857883 -0.368164,-1.293213 -0.112277,-0.435329 -0.213959,-0.874964 -0.304932,-1.318359 -0.09097,-0.443396 -0.171141,-0.890666 -0.240234,-1.341553 -0.06909,-0.450886 -0.127191,-0.905235 -0.173828,-1.363037 -0.04664,-0.457802 -0.08186,-0.918915 -0.105469,-1.383057 -0.02361,-0.464141 -0.03564,-0.931461 -0.03564,-1.401367 0.02313,-0.583187 0.05925,-1.156389 0.107666,-1.719726 0.04841,-0.563337 0.109066,-1.116809 0.181885,-1.660401 0.07282,-0.543592 0.157809,-1.077366 0.254151,-1.601318 0.09634,-0.523952 0.204018,-1.038064 0.322998,-1.542481 0.11898,-0.504416 0.249157,-0.9989 0.389892,-1.483886 0.140735,-0.484986 0.292006,-0.960365 0.453614,-1.426026 0.161607,-0.46566 0.333541,-0.921724 0.515136,-1.368164 0.181596,-0.446439 0.37303,-0.883223 0.573731,-1.310547 0.200701,-0.427323 0.410716,-0.845105 0.629638,-1.253418 0.218923,-0.408312 0.4466,-0.807126 0.682862,-1.196533 0.236261,-0.389406 0.48117,-0.769531 0.733886,-1.140136 0.252717,-0.370606 0.51345,-0.731832 0.781739,-1.083741 0.268288,-0.351909 0.543927,-0.694515 0.826904,-1.027832 0.282977,-0.333317 0.573091,-0.657337 0.869873,-0.972168 0.593564,-0.629661 1.213938,-1.222465 1.857422,-1.778808 0.643484,-0.556343 1.310245,-1.076195 1.996582,-1.560059 0.686337,-0.483864 1.392134,-0.93177 2.114258,-1.343994 0.722123,-0.412224 1.460583,-0.788704 2.211426,-1.130127 0.750842,-0.341423 1.514125,-0.647729 2.286621,-0.919189 0.772495,-0.271461 1.554227,-0.508112 2.341308,-0.71045 0.787081,-0.202337 1.579668,-0.370342 2.374268,-0.504394 0.7946,-0.134053 1.591179,-0.234175 2.38623,-0.300781 0.795052,-0.06661 1.588517,-0.09961 2.376953,-0.09961 z"
   style="fill:#ff0000"
   id="path4" />&#10;&#10;&#10;&#10;</g>&#10;&#10;</g>&#10;&#10;</g>&#10;&#10;</svg>
