<?xml version="1.0" encoding="UTF-8" standalone="no"?>
<!-- Created with Inkscape (http://www.inkscape.org/) -->

<svg
   width="64"
   height="64"
   viewBox="0 0 64 64"
   version="1.1"
   id="svg5"
   xml:space="preserve"
   sodipodi:docname="deck.svg"
   inkscape:version="1.2.2 (b0a8486541, 2022-12-01)"
   xmlns:inkscape="http://www.inkscape.org/namespaces/inkscape"
   xmlns:sodipodi="http://sodipodi.sourceforge.net/DTD/sodipodi-0.dtd"
   xmlns="http://www.w3.org/2000/svg"
   xmlns:svg="http://www.w3.org/2000/svg"><sodipodi:namedview
     id="namedview7"
     pagecolor="#505050"
     bordercolor="#ffffff"
     borderopacity="1"
     inkscape:showpageshadow="0"
     inkscape:pageopacity="0"
     inkscape:pagecheckerboard="1"
     inkscape:deskcolor="#505050"
     inkscape:document-units="px"
     showgrid="false"
     inkscape:zoom="16"
     inkscape:cx="47.09375"
     inkscape:cy="33.78125"
     inkscape:window-width="2556"
     inkscape:window-height="1387"
     inkscape:window-x="1920"
     inkscape:window-y="49"
     inkscape:window-maximized="1"
     inkscape:current-layer="layer1" /><defs
     id="defs2" /><g
     inkscape:label="Capa 1"
     inkscape:groupmode="layer"
     id="layer1"><path
       id="rect300"
       style="fill:#55b8e2;fill-opacity:1;stroke:#55b8e2;stroke-width:0;stroke-miterlimit:34.1;stroke-dasharray:none;stroke-opacity:1;paint-order:stroke fill markers"
       d="M 9 4 C 6.2300028 4 4 6.2300028 4 9 L 4 31 C 4 33.769997 6.2300028 36 9 36 L 14 36 L 14 19 C 14 16.230003 16.230003 14 19 14 L 36 14 L 36 9 C 36 6.2300028 33.769997 4 31 4 L 9 4 z " /><path
       id="rect300-7"
       style="fill:#f2f0fd;fill-opacity:1;stroke:#55b8e2;stroke-width:0;stroke-miterlimit:34.1;stroke-dasharray:none;stroke-opacity:1;paint-order:stroke fill markers"
       d="M 21 16 C 18.230003 16 16 18.230003 16 21 L 16 43 C 16 45.769997 18.230003 48 21 48 L 26 48 L 26 31 C 26 28.230003 28.230003 26 31 26 L 48 26 L 48 21 C 48 18.230003 45.769997 16 43 16 L 21 16 z " /><rect
       style="fill:#61d6c6;fill-opacity:1;stroke:#55b8e2;stroke-width:0;stroke-miterlimit:34.1;stroke-dasharray:none;stroke-opacity:1;paint-order:stroke fill markers"
       id="rect300-7-5"
       width="31.999998"
       height="32"
       x="28"
       y="28"
       rx="5"
       ry="5" /></g></svg>
