<?xml version="1.0" encoding="UTF-8" standalone="no"?>
<!-- Created with Inkscape (http://www.inkscape.org/) -->

<svg
   width="64"
   height="64"
   viewBox="0 0 64 64"
   version="1.1"
   id="svg5"
   xml:space="preserve"
   sodipodi:docname="magnifier.svg"
   inkscape:version="1.3.2 (091e20ef0f, 2023-11-25, custom)"
   xmlns:inkscape="http://www.inkscape.org/namespaces/inkscape"
   xmlns:sodipodi="http://sodipodi.sourceforge.net/DTD/sodipodi-0.dtd"
   xmlns="http://www.w3.org/2000/svg"
   xmlns:svg="http://www.w3.org/2000/svg"><sodipodi:namedview
     id="namedview7"
     pagecolor="#505050"
     bordercolor="#ffffff"
     borderopacity="1"
     inkscape:showpageshadow="0"
     inkscape:pageopacity="0"
     inkscape:pagecheckerboard="1"
     inkscape:deskcolor="#505050"
     inkscape:document-units="px"
     showgrid="true"
     inkscape:zoom="11.21453"
     inkscape:cx="4.6368418"
     inkscape:cy="18.413612"
     inkscape:window-width="2560"
     inkscape:window-height="1396"
     inkscape:window-x="1920"
     inkscape:window-y="284"
     inkscape:window-maximized="1"
     inkscape:current-layer="g4941"><inkscape:grid
       id="grid1"
       units="px"
       originx="0"
       originy="0"
       spacingx="1"
       spacingy="1"
       empcolor="#0099e5"
       empopacity="0.30196078"
       color="#0099e5"
       opacity="0.14901961"
       empspacing="5"
       dotted="false"
       gridanglex="30"
       gridanglez="30"
       visible="true" /></sodipodi:namedview><defs
     id="defs2" /><g
     inkscape:label="Capa 1"
     inkscape:groupmode="layer"
     id="layer1"><g
       id="g4941"
       transform="rotate(180,32,32)"><path
         id="rect300"
         style="fill:#61d6c6;fill-opacity:1;stroke:none;stroke-width:0;stroke-miterlimit:34.1;stroke-dasharray:none;stroke-opacity:1;paint-order:stroke fill markers"
         d="m 56,34 c 2.215998,0 4,1.784002 4,4 v 17 c 0,2.215998 -2.784002,5 -5,5 H 9 C 6.7840022,60 4,57.215998 4,55 V 38 c 0,-2.215998 1.7840022,-4 4,-4 h 3 v 9 c 0,3 3,6 6,6 h 30 c 3,0 6,-3 6,-6 v -9 z"
         sodipodi:nodetypes="sssssssscsssscs" /><path
         id="rect300-9"
         style="fill:#f2f0fd;fill-opacity:1;stroke:none;stroke-width:0;stroke-miterlimit:34.1;stroke-dasharray:none;stroke-opacity:1;paint-order:stroke fill markers"
         d="m 55,4 c 2.215998,0 5,2.784002 5,5 v 17 c 0,2.215998 -1.784002,4 -4,4 h -3 v -9 c 0,-3 -3,-6 -6,-6 H 17 c -3,0 -6,3 -6,6 v 9 H 8 C 5.7840022,30 4,28.215998 4,26 V 9 C 4,6.784002 6.7840022,4 9,4 Z"
         sodipodi:nodetypes="sssscsssscsssss" /><rect
         style="fill:#55b8e2;fill-opacity:1;stroke:none;stroke-width:0;stroke-miterlimit:34.1;stroke-dasharray:none;stroke-opacity:1;paint-order:stroke fill markers"
         id="rect300-2"
         width="38"
         height="30"
         x="-51"
         y="-47"
         rx="5"
         ry="5"
         transform="scale(-1)" /></g></g></svg>
