<?xml version="1.0" encoding="UTF-8" standalone="no"?>
<!-- Created with Inkscape (http://www.inkscape.org/) -->

<svg
   width="64"
   height="64"
   viewBox="0 0 64 64"
   version="1.1"
   id="svg5"
   xml:space="preserve"
   sodipodi:docname="magnifier.svg"
   inkscape:version="1.2.2 (b0a8486541, 2022-12-01)"
   xmlns:inkscape="http://www.inkscape.org/namespaces/inkscape"
   xmlns:sodipodi="http://sodipodi.sourceforge.net/DTD/sodipodi-0.dtd"
   xmlns="http://www.w3.org/2000/svg"
   xmlns:svg="http://www.w3.org/2000/svg"><sodipodi:namedview
     id="namedview7"
     pagecolor="#505050"
     bordercolor="#ffffff"
     borderopacity="1"
     inkscape:showpageshadow="0"
     inkscape:pageopacity="0"
     inkscape:pagecheckerboard="1"
     inkscape:deskcolor="#505050"
     inkscape:document-units="px"
     showgrid="false"
     inkscape:zoom="16"
     inkscape:cx="35.78125"
     inkscape:cy="32.28125"
     inkscape:window-width="2556"
     inkscape:window-height="1387"
     inkscape:window-x="1920"
     inkscape:window-y="49"
     inkscape:window-maximized="1"
     inkscape:current-layer="g4941" /><defs
     id="defs2" /><g
     inkscape:label="Capa 1"
     inkscape:groupmode="layer"
     id="layer1"><g
       id="g4941"
       transform="rotate(180,32,32)"><path
         id="rect300"
         style="fill:#61d6c6;fill-opacity:1;stroke:#55b8e2;stroke-width:0;stroke-miterlimit:34.1;stroke-dasharray:none;stroke-opacity:1;paint-order:stroke fill markers"
         d="m 56.2,34 c 2.215998,0 3.8,1.584002 3.8,3.8 V 56 c 0,2.215998 -1.784002,4 -4,4 H 8 C 5.7840022,60 4,58.215998 4,56 V 37.8 C 4,35.584002 5.5840022,34 7.8,34 H 10 v 12 c 0,2.215998 1.784002,4 4,4 h 36 c 2.215998,0 4,-1.784002 4,-4 V 34 Z"
         sodipodi:nodetypes="sssssssscsssscs" /><path
         id="rect300-9"
         style="fill:#f2f0fd;fill-opacity:1;stroke:#55b8e2;stroke-width:0;stroke-miterlimit:34.1;stroke-dasharray:none;stroke-opacity:1;paint-order:stroke fill markers"
         d="m 56,4 c 2.215998,0 4,1.784002 4,4 V 26.2 C 60,28.415998 58.415998,30 56.2,30 H 54 V 18 c 0,-2.215998 -1.784002,-4 -4,-4 H 14 c -2.215998,0 -4,1.784002 -4,4 V 30 H 7.8 C 5.5840022,30 4,28.415998 4,26.2 V 8 C 4,5.784002 5.7840022,4 8,4 Z"
         sodipodi:nodetypes="sssscsssscsssss" /><rect
         style="fill:#55b8e2;fill-opacity:1;stroke:#55b8e2;stroke-width:0;stroke-miterlimit:34.1;stroke-dasharray:none;stroke-opacity:1;paint-order:stroke fill markers"
         id="rect300-2"
         width="38"
         height="30"
         x="-51"
         y="-47"
         rx="5"
         ry="5"
         transform="scale(-1)" /></g></g></svg>
