<?xml version="1.0" encoding="iso-8859-1"?>
<!-- Uploaded to: SVG Repo, www.svgrepo.com, Generator: SVG Repo Mixer Tools -->
<svg fill="#000000" height="800px" width="800px" version="1.1" id="Layer_1" xmlns="http://www.w3.org/2000/svg" xmlns:xlink="http://www.w3.org/1999/xlink" 
	 viewBox="0 0 511.998 511.998" xml:space="preserve">
<g>
	<g>
		<path d="M362.667,202.666c-23.531,0-42.667,19.136-42.667,42.667c0,23.53,19.136,42.666,42.667,42.666
			s42.667-19.136,42.667-42.667C405.333,221.801,386.197,202.666,362.667,202.666z"/>
	</g>
</g>
<g>
	<g>
		<path d="M192,202.666c-23.531,0-42.667,19.136-42.667,42.666c0,23.531,19.136,42.667,42.667,42.667h21.333v-85.333H192z"/>
	</g>
</g>
<g>
	<g>
		<path d="M490.667,95.999H85.333V74.666c0-11.776-9.536-21.333-21.333-21.333H21.333C9.536,53.332,0,62.89,0,74.666
			s9.536,21.333,21.333,21.333h21.333v21.333v256v42.667c0,11.776,9.536,21.333,21.333,21.333s21.333-9.557,21.333-21.333v-21.333
			H128v42.667c0,11.776,9.536,21.333,21.333,21.333s21.333-9.557,21.333-21.333v-42.667h42.667v42.667
			c0,11.776,9.536,21.333,21.333,21.333s21.333-9.557,21.333-21.333v-42.667h42.667v42.667c0,11.776,9.536,21.333,21.333,21.333
			s21.333-9.557,21.333-21.333v-42.667h149.333c11.797,0,21.333-9.557,21.333-21.333v-256
			C512,105.556,502.464,95.999,490.667,95.999z M256,309.332c0,11.776-9.536,21.333-21.333,21.333H192
			c-47.061,0-85.333-38.272-85.333-85.333s38.272-85.333,85.333-85.333h42.667c11.797,0,21.333,9.557,21.333,21.333V309.332z
			 M362.667,330.666c-47.061,0-85.333-38.272-85.333-85.333s38.271-85.334,85.333-85.334c47.062,0,85.333,38.272,85.333,85.333
			S409.728,330.666,362.667,330.666z"/>
	</g>
</g>
</svg>