<?xml version="1.0" encoding="UTF-8" standalone="no"?>
<svg
   height="48"
   viewBox="0 96 960 960"
   width="48"
   version="1.1"
   id="svg4"
   sodipodi:docname="notification.svg"
   inkscape:version="1.2.2 (b0a8486541, 2022-12-01)"
   xmlns:inkscape="http://www.inkscape.org/namespaces/inkscape"
   xmlns:sodipodi="http://sodipodi.sourceforge.net/DTD/sodipodi-0.dtd"
   xmlns="http://www.w3.org/2000/svg"
   xmlns:svg="http://www.w3.org/2000/svg">
  <defs
     id="defs8" />
  <sodipodi:namedview
     id="namedview6"
     pagecolor="#505050"
     bordercolor="#ffffff"
     borderopacity="1"
     inkscape:showpageshadow="0"
     inkscape:pageopacity="0"
     inkscape:pagecheckerboard="1"
     inkscape:deskcolor="#505050"
     showgrid="false"
     inkscape:zoom="13.110938"
     inkscape:cx="51.36932"
     inkscape:cy="21.051125"
     inkscape:window-width="2556"
     inkscape:window-height="1392"
     inkscape:window-x="1920"
     inkscape:window-y="44"
     inkscape:window-maximized="1"
     inkscape:current-layer="svg4" />
  <path
     d="m 195,805.50071 h 645 v -389 c 11.196,-3.33333 21.66167,-7.83333 31.397,-13.5 9.73533,-5.66667 19.26967,-12.16667 28.603,-19.5 v 422 c 0,15.33333 -6.16667,29.16667 -18.5,41.5 -12.33333,12.33333 -26.16667,18.5 -41.5,18.5 H 220 L 60,1025.5007 V 245.50071 c 0,-15.33333 6,-29.16667 18,-41.5 12,-12.33333 26,-18.5 42,-18.5 h 517 c -2.66667,9.33333 -4.66667,19.16667 -6,29.5 -1.33333,10.33333 -1.66667,20.5 -1,30.5 H 120 v 635 z m 25,-99 h 353 v -60 H 220 Z m 0,-150 h 520 v -60 H 220 Z m 0,-150 h 495 c -14,-7.33333 -26.83333,-16 -38.5,-26 -11.66667,-10 -22.16667,-21.33333 -31.5,-34 H 220 Z m -100,-161 v 560 z"
     id="path2"
     style="stroke:#000000;stroke-width:20;stroke-linejoin:round;stroke-dasharray:none;stroke-opacity:1"
     sodipodi:nodetypes="cccscsssccssscsccccccccccccccccscccccc" />
  <path
     d="m 829.88201,346.18686 c -30.58797,0 -56.54867,-10.706 -77.88197,-32.118 C 730.66664,292.65753 720,266.65753 720,236.06886 c 0,-30.588 10.70604,-56.54867 32.11804,-77.882 21.4113,-21.33333 47.4113,-32 77.99997,-32 30.588,0 56.5486,10.706 77.882,32.118 21.33331,21.41133 32.00001,47.41133 32.00001,78 0,30.588 -10.706,56.54867 -32.11801,77.882 -21.4114,21.33333 -47.4114,32 -78,32 z"
     style="stroke:none;stroke-width:20;stroke-linejoin:round;stroke-dasharray:none;stroke-opacity:1"
     id="path391" />
</svg>
